<?xml version="1.0" encoding="utf-8"?>
<svg xmlns="http://www.w3.org/2000/svg" xmlns:xlink="http://www.w3.org/1999/xlink" version="1.2" preserveAspectRatio="xMidYMin meet" viewBox="-30 -23.75 260 285" data-sitelen-sentence=""><style>ellipse,polygon,polyline,rect,circle,line,path{stroke-width:2;stroke:black;vector-effect:non-scaling-stroke} .filler{stroke:none;}</style><svg width="200" height="237.5" viewBox="0 0 100 100" y="0" preserveAspectRatio="none" filter="" style="overflow: visible;"><svg viewBox="-1 19 102 102" preserveAspectRatio="none" height="15.789473684210526" width="100" x="0" y="84.21052631578948" style="overflow: visible;"><use xlink:href="#tp-wg-exclamation" transform="matrix(1.2,0,0,1.2,-10,-10)" height="100" width="100" x="0" y="0"></use></svg><svg viewBox="-1 -1 102 102" preserveAspectRatio="none" height="84.21052631578948" width="100" x="0" y="0" style="overflow: visible;"><use xlink:href="#tp-wg-o" transform="matrix(1.2,0,0,1.2,-5,-5)" height="50" width="50" x="0" y="0"></use><use xlink:href="#tp-wg-kama" transform="matrix(1.2,0,0,1.2,-5,-15)" height="50" width="50" x="0" y="50"></use><use xlink:href="#tp-wg-pona" transform="matrix(1.2,0,0,1.2,-15,-5)" height="50" width="50" x="50" y="0"></use><use xlink:href="#tp-wg-a" transform="matrix(1.2,0,0,1.2,-15,-15)" height="50" width="50" x="50" y="50"></use></svg></svg><symbol viewBox="-2 -2 277.443 42.247" preserveAspectRatio="none" id="tp-wg-exclamation"> <g id="exclamation" stroke-miterlimit="10"> <path fill="#FFF" stroke-width="4.5" stroke-linecap="round" stroke-linejoin="round" d="M35.128 20l9.48 14.746 11.707-14.85 9.428 14.85 10.568-14.85 10.57 14.85 9.427-14.85 11.707 14.85L117.497 20l9.483 14.746 11.706-14.85 9.43 14.85 10.566-14.85 10.568 14.85 9.43-14.85 11.705 14.85L199.868 20l9.483 14.746 11.708-14.85 9.428 14.85 10.568-14.85"></path> <path d="M31.5 19.624c0 10.562-6.492 16.123-14.5 16.123S2.5 30.187 2.5 19.624 8.992 2.5 17 2.5h239.443c8.008 0 14.5 6.56 14.5 17.124s-6.492 16.123-14.5 16.123-14.5-5.56-14.5-16.123" fill="#FFF"></path> <path d="M252.84 19.043C239.09 20.127 88.428 20.75 71.31 20.75s-36.958-.623-50.71-1.707" fill="none" stroke-linecap="round" stroke-linejoin="round"></path> </g> </symbol><symbol viewBox="-2 -2 129 130.476" preserveAspectRatio="none" id="tp-wg-o"> <g id="dao"> <ellipse cx="62.5" cy="80.976" rx="60" ry="43" fill="#FFF" stroke-miterlimit="10"></ellipse> <path d="M87.922 4.035c13.2 6.027 21.953 16.608 21.953 28.655 0 18.75-21.21 33.953-47.376 33.953s-47.377-15.2-47.377-33.953c0-12.088 8.814-22.64 22.087-28.655l12.622 15.967L62.5 4.035l12.538 15.967L87.922 4.035z" fill="#FFF" stroke-miterlimit="10"></path> <circle cx="62.328" cy="39.166" r="12.408" fill="#FFF" stroke-linecap="round" stroke-linejoin="round" stroke-miterlimit="10"></circle> <circle cx="62.328" cy="39.166" r="5.516"></circle> <path d="M27.314 69.78c9.074-6.276 21.45-10.14 35.094-10.14 13.394 0 25.567 3.724 34.594 9.798" fill="#FFF" stroke-width="4.5" stroke-linecap="round" stroke-linejoin="round" stroke-miterlimit="10"></path> </g> </symbol><symbol viewBox="-2 -2 129.007 72.491" preserveAspectRatio="none" id="tp-wg-kama"> <g id="azkama"> <path d="M35.833 8.993C66.5 8.993 74.166 6.32 92.5 2.99s30.333 10.668 30 32v1c0 16.57-13.333 30-30 30-23.667 0-59-3.332-59-3.332" fill="#FFF" stroke-linecap="round" stroke-linejoin="round" stroke-miterlimit="10"></path> <path d="M85.853 14.888c-9.406 1.537-24.197 2.773-45.286 2.814C38.01 9.9 30.68 4.262 22.023 4.262 11.24 4.26 2.5 13 2.5 23.782v22.685c0 10.782 8.74 19.523 19.523 19.523 10.782 0 19.523-8.74 19.523-19.522v-2.015h20.62c30.667 0 40.34-8.797 40.34-17.55s-7.087-13.58-16.653-12.015z" fill="#FFF" stroke-linecap="round" stroke-linejoin="round" stroke-miterlimit="10"></path> <path d="M30.69 48.28c-9.147-5.303-14.594-15.825-12.913-26.91" fill="none" stroke-linecap="round" stroke-linejoin="round" stroke-miterlimit="10"></path> <path d="M53.43 57.308c-2.475-3.713-3.702-8.038-3.235-12.515m12.568 12.515c-2.475-3.713-3.702-8.038-3.235-12.515" fill="none" stroke-linecap="round" stroke-linejoin="round" stroke-miterlimit="10"></path> <circle cx="75.464" cy="52.087" r="2.631"></circle> <circle cx="88.536" cy="51.229" r="2.631"></circle> </g> </symbol><symbol viewBox="-2 -2 129.01999999999998 129" preserveAspectRatio="none" id="tp-wg-pona"> <g id="dqpona" fill="#FFF"> <ellipse cx="71.361" cy="40.749" rx="38.75" ry="10.251"></ellipse> <path d="M12 38.5c-14.5-14.75-4.75-36 11.5-36 13 0 21 12.54 21 25.54 0-11.97 6.5-23.672 18-23.672 12.5 0 18 11.703 18 23.67C80.5 15.04 89.25 2.5 101.75 2.5c11.6 0 20.77 11.52 20.77 24.52l-.02 35.48c0 33.137-26.862 60-60 60s-60-26.863-60-60c0 0-.5-28.25 22-28.25 19.25 0 25.002 10.5 42.253 10.5 16.75 0 25.545-5.542 30.75-9.5" stroke-linecap="round" stroke-linejoin="round" stroke-miterlimit="10"></path> <path d="M25.002 57.997c9.5-5.5 19.25 6 38 6.416 14.998.334 29.67-9.913 36.75-5.166 9.25 6.2 5.5 37.248-38.5 37.248s-44.35-33.807-36.25-38.498z" stroke-linecap="round" stroke-linejoin="round" stroke-miterlimit="10"></path> <path d="M36.754 72.604s12 7.615 26.75 7.615 23-7.277 23-7.277" stroke-linecap="round" stroke-linejoin="round" stroke-miterlimit="10"></path> </g> </symbol><symbol viewBox="-2 -2 129 129" preserveAspectRatio="none" id="tp-wg-a"> <g id="aaa"> <path d="M122.5 62.5v30c0 16.57-13.43 30-30 30h-60c-16.57 0-30-13.43-30-30v-30c0-33.137 26.863-60 60-60s60 26.863 60 60z" fill="#FFF" stroke-miterlimit="10"></path> <path d="M2.5 64.5c7.444-7.444 24.513-4.757 36.23 6.958 6.106 6.107 10.046 13.644 11.293 20.14" fill="none" stroke-miterlimit="10"></path> <ellipse transform="rotate(-86.078 28.74 91.26)" cx="28.746" cy="91.265" rx="4.434" ry="4.434"></ellipse> <path d="M122.505 59.212c-14.82 1.815-36.214 2.954-60.005 2.954V122.5" fill="none" stroke="#000" stroke-linecap="round" stroke-linejoin="round" stroke-miterlimit="10"></path> <path d="M122.505 79.546C107.685 81.36 86.29 82.5 62.5 82.5m60.005 17.046C107.685 101.36 86.29 102.5 62.5 102.5M50.023 91.597s-8.267 9.707-17.6 9.067-16.196-11.386-16.196-11.386 8.267-9.707 17.6-9.067S50.023 91.6 50.023 91.6z" fill="none" stroke-linecap="round" stroke-linejoin="round" stroke-miterlimit="10"></path> </g> </symbol></svg>