<?xml version="1.0" encoding="utf-8"?>
<svg xmlns="http://www.w3.org/2000/svg" xmlns:xlink="http://www.w3.org/1999/xlink" version="1.2" preserveAspectRatio="xMidYMin meet" viewBox="-37.5 -23.33333333333333 325 280" data-sitelen-sentence=""><style>ellipse,polygon,polyline,rect,circle,line,path{stroke-width:2;stroke:black;vector-effect:non-scaling-stroke} .filler{stroke:none;}</style><svg width="250" height="233.33333333333334" viewBox="0 0 100 100" y="0" preserveAspectRatio="none" filter="" style="overflow: visible;"><svg viewBox="-1 -1 102 102" preserveAspectRatio="none" height="100" width="100" x="0" y="0" style="overflow: visible;"><use xlink:href="#tp-c-pi-wide" transform="matrix(1.104,0,0,1.104,-5.200000000000003,-8.542857142857144)" height="35.714285714285715" width="100" x="0" y="64.28571428571428"></use><svg viewBox="-1 -1 102 102" preserveAspectRatio="none" height="64.28571428571428" width="100" x="0" y="0" style="overflow: visible;"><use xlink:href="#tp-wg-lipu" transform="matrix(1.2,0,0,1.2,-6,-10)" height="100" width="60" x="0" y="0"></use><use xlink:href="#tp-wg-ike" transform="matrix(1.2,0,0,1.2,-16,-6.666666666666664)" height="66.66666666666667" width="40" x="60" y="0"></use><use xlink:href="#tp-wg-lili" transform="matrix(1.2,0,0,1.2,-16,-16.66666666666667)" height="33.333333333333336" width="40" x="60" y="66.66666666666667"></use></svg><svg viewBox="-16 -16 132 132" preserveAspectRatio="none" height="35.714285714285715" width="100" x="0" y="64.28571428571428" style="overflow: visible;"><svg viewBox="-1 -1 102 102" preserveAspectRatio="none" height="100" width="33.333333333333336" x="0" y="0" style="overflow: visible;"><use xlink:href="#tp-wg-jan" transform="matrix(1.2,0,0,1.2,-10,-10)" height="100" width="100" x="0" y="0"></use></svg><use xlink:href="#tp-c-cartouche-wide" transform="matrix(1.104,0,0,1.104,-6.933333333333337,-5.200000000000003)" height="100" width="66.66666666666667" x="33.333333333333336" y="0"></use><svg viewBox="-16 -16 132 132" preserveAspectRatio="none" height="100" width="66.66666666666667" x="33.333333333333336" y="0" style="overflow: visible;"><use xlink:href="#tp-syl-ka" transform="matrix(1.2,0,0,1.2,-5,-10)" height="100" width="50" x="0" y="0"></use><use xlink:href="#tp-syl-no" transform="matrix(1.2,0,0,1.2,-12.5,-10)" height="100" width="25" x="50" y="0"></use><use xlink:href="#tp-syl-ni" transform="matrix(1.2,0,0,1.2,-17.5,-10)" height="100" width="25" x="75" y="0"></use></svg></svg></svg></svg><symbol viewBox="0 0 211.633 169.814" id="tp-c-pi-wide" preserveAspectRatio="none" style="overflow:visible;"> <g id="pi-wide" transform="matrix(1 0 0 1.2 0 0)"> <path style="fill:#FFFFFF;stroke-linecap:round;stroke-linejoin:round;stroke-miterlimit:10;" d=" M2.501,34.945C2.501,17.026,17.027,2.5,34.946,2.5h141.743c17.919,0,32.445,14.526,32.445,32.445v70.453 c0,17.919-14.526,32.445-32.445,32.445l-135.525,0v10.139c0,10.677-8.655,19.332-19.332,19.332l0,0 c-10.677,0-19.332-8.655-19.332-14.735v-47.18V34.945H2.501z"></path> <circle cx="21.833" cy="153.667" r="3.785"></circle> <circle cx="21.833" cy="140.689" r="3.785"></circle> </g> </symbol><symbol viewBox="-2 -2 129 129" preserveAspectRatio="none" id="tp-wg-lipu"> <g id="bylipu"> <path d="M50.375 60.477c0 13.22-9.125 24.938-23.938 24.938C11.75 85.415 2.5 75.72 2.5 62.5c0-33.137 26.863-60 60-60 21.93 0 39.708 16.25 39.708 36.25S88.316 79.42 88.316 79.42c4.185-1.586 9.89-2.985 14.788-2.985 10.712 0 19.396 5.815 19.396 19.067 0 16.57-11.25 26.998-33.002 26.998h-65.06c-10.53 0-19.064-7.534-19.064-18.062 0-4.948.828-9.67 3.976-13.845s6.4-7.176 6.4-7.176" fill="#FFF" stroke-linecap="round" stroke-linejoin="round" stroke-miterlimit="10"></path> <path d="M53 122.25c0-12 17.25-43.75 17.25-43.75 7.25-14.25 8.42-26.828.142-34.142C61.5 36.5 41 34.25 28 62" fill="none" stroke-linecap="round" stroke-linejoin="round" stroke-miterlimit="10"></path> <circle cx="21.253" cy="46.249" r="3.099"></circle> <circle cx="32.749" cy="31.622" r="3.099"></circle> <circle cx="50.25" cy="23.999" r="3.099"></circle> </g> </symbol><symbol viewBox="-2 -2 129 129.074" preserveAspectRatio="none" id="tp-wg-ike"> <g id="aqike" fill="#FFF" stroke-miterlimit="10"> <path d="M107.5 96.676c8.284 0 15 5.797 15 12.95 0 7.15-6.716 12.948-15 12.948s-15-5.797-15-12.95c0 7.152-6.716 12.95-15 12.95s-15-5.797-15-12.95c0 7.152-6.716 12.95-15 12.95s-15-5.797-15-12.95c0 7.152-6.716 12.95-15 12.95s-15-5.797-15-12.95c0-7.15 6.716-12.948 15-12.948" stroke-linejoin="round"></path> <path d="M92.5 16.5c16.57 0 30 13.43 30 30v30.75c0 16.57-13.43 30-30 30h-60c-16.57 0-30-13.43-30-30V46.5c0-16.57 13.43-30 30-30 0 0 5.75 55.5 29.75 55.5S92.5 16.5 92.5 16.5z"></path> <circle cx="49.312" cy="18.936" r="8.188" stroke-width="3.5"></circle> <circle cx="49.312" cy="39.314" r="8.188" stroke-width="3.5"></circle> <circle cx="75.562" cy="18.936" r="8.188" stroke-width="3.5"></circle> <circle cx="75.562" cy="39.314" r="8.188" stroke-width="3.5"></circle> <path d="M62.5 81C44.028 81 29 65.974 29 47.5v-36a9 9 0 0 1 18 0v36C47 56.05 53.953 63 62.5 63S78 56.048 78 47.5v-36a9 9 0 0 1 18 0v36C96 65.973 80.972 81 62.5 81z"></path> <circle cx="36.75" cy="90.666" r="6.5"></circle> <circle cx="88.25" cy="90.666" r="6.5"></circle> <circle cx="62.5" cy="93.668" r="6.5"></circle> </g> </symbol><symbol viewBox="-2 -2 129 49" preserveAspectRatio="none" id="tp-wg-lili"> <g id="bwlili" fill="#FFF" stroke-miterlimit="10"> <path d="M75.875 8.022C85.495 5.966 93.31 2.5 102.61 2.5c13.223 0 19.89 8.954 19.89 20s-7.11 20-19.89 20c-8.952 0-14.578-4.913-24.482-7.854m-31.863.17C36.655 37.774 31.018 42.5 22.39 42.5c-12.557 0-19.89-8.954-19.89-20s9.444-20 19.89-20c7.39 0 16.058 3.506 26.4 5.557"></path> <circle cx="62.5" cy="22.5" r="20"></circle> <path d="M18.25 19.833s11 6 24.333 6m64.167-6s-11 6-24.333 6" stroke-linecap="round" stroke-linejoin="round"></path> </g> </symbol><symbol viewBox="-2 -2 129 129" preserveAspectRatio="none" id="tp-wg-jan"> <g id="aujan"> <path d="M115.5 41c0 16.57-13.43 30-30 30h-46c-16.57 0-30-13.43-30-30v-8.5c0-16.57 13.43-30 30-30h46c16.57 0 30 13.43 30 30V41z" fill="#FFF" stroke-miterlimit="10"></path> <path d="M68.673 22.084c1.747 2.964 2.783 6.66 2.783 10.666 0 18.417-20.08 17.667-20.08 17.667A7.375 7.375 0 0 1 44 43.042V29.25c0-10.217 8.283-18.5 18.5-18.5S81 19.033 81 29.25V39.5c0 3.75 2.5 8.083 11.73 10.825 16.77 4.842 29.77 19.98 29.77 38.487V92.5c0 16.57-15.433 30-32 30h-56c-16.568 0-32-13.43-32-30v-3.688c0-21.953 18.25-37.312 42-42.062" fill="#FFF" stroke-linecap="round" stroke-linejoin="round" stroke-miterlimit="10"></path> <circle cx="56.666" cy="31.459" r="3.375"></circle> <path fill="none" stroke-linecap="round" stroke-linejoin="round" stroke-miterlimit="10" d="M41.167 96.347L72.81 68.164m-20.62 38L83.832 77.98M72.81 106.164L41.168 77.98m42.665 18.367L52.19 68.164"></path> </g> </symbol><symbol viewBox="0 0 244.065 154.495" preserveAspectRatio="none" id="tp-c-cartouche-wide" style="overflow:visible;"> <g transform="matrix(1 0 0 1.15 0 -10)" id="cartouche-tall-wide" fill="#FFF" stroke="#000" stroke-width="5" stroke-linecap="round" stroke-linejoin="round" stroke-miterlimit="10"> <path d="M34.762,141.771c-17.818,0-32.262-14.444-32.262-32.262V44.985c0-17.818,14.444-32.262,32.262-32.262l168.256,0.247 c3.703-7.425,10.227-10.47,17.657-10.47l0,0c11.537,0,20.889,9.882,20.889,24.541v100.413c0,14.659-9.352,24.541-20.889,24.541l0,0 c-7.698,0-14.423-2.595-18.046-10.47L34.762,141.771z"></path> </g> </symbol><symbol viewBox="-2 -2 129 129" preserveAspectRatio="none" id="tp-syl-ka"> <g id="aoka"> <g id="aoka_1_"> <path d="M120.5 92.625c0 16.5-11.375 29.875-27.875 29.875S62.75 109.125 62.75 92.625 76.125 60.75 92.625 60.75 120.5 76.124 120.5 92.624z" fill="#FFF" stroke="#000" stroke-width="5" stroke-linecap="round" stroke-linejoin="round" stroke-miterlimit="10"></path> <path d="M92.874 92.625c0 16.5-11.374 29.875-27.874 29.875s-29.875-13.375-29.875-29.875S48.5 53.745 65 53.745s27.874 22.38 27.874 38.88z" fill="#FFF" stroke="#000" stroke-width="5" stroke-linecap="round" stroke-linejoin="round" stroke-miterlimit="10"></path> <path d="M88.67 80.5c26.33 0 33.83-12.25 33.83-39 0-21.54-17.834-39-39.833-39H62.5c-33.137 0-60 26.863-60 60v30c0 16.57 13.43 30 30 30h-.042c16.57 0 30-13.43 30-30V80.562L88.67 80.5z" fill="#FFF" stroke="#000" stroke-width="5" stroke-linecap="round" stroke-linejoin="round" stroke-miterlimit="10"></path> <path d="M25.85 14.988c14.132-4.346 30.986-3.11 43.62 6.9 7.446 5.9 11.052 16.295 12.423 23.44" fill="none" stroke="#000" stroke-width="5" stroke-linecap="round" stroke-linejoin="round" stroke-miterlimit="10"></path> <ellipse transform="rotate(-86.078 58.905 43.882)" cx="58.91" cy="43.884" rx="5.92" ry="5.92"></ellipse> <path d="M81.892 45.326S72.087 56.84 61.017 56.08c-11.07-.76-19.21-13.504-19.21-13.504s9.805-11.513 20.875-10.754 19.21 13.504 19.21 13.504z" fill="none" stroke="#000" stroke-width="5" stroke-linecap="round" stroke-linejoin="round" stroke-miterlimit="10"></path> </g> </g> </symbol><symbol viewBox="-2 -2 74 129.005" preserveAspectRatio="none" id="tp-syl-no"> <g id="byno"> <g id="byno_1_"> <path d="M32.745 2.5c10.902 0 19.985 8.025 19.985 17.925 0 5.94-3.195 11.19-8.096 14.45C53.788 35.52 61 42.456 61 50.932 61 57.42 56.768 63 50.682 65.554c9.96 4.88 16.818 15.114 16.818 26.952 0 16.57-12.247 30-28.815 30C13.647 122.505 2.5 95.767 2.5 62.63V32.5c0-16.57 13.676-30 30.245-30z" fill="#FFF" stroke="#000" stroke-width="5" stroke-linecap="round" stroke-linejoin="round" stroke-miterlimit="10"></path> <circle cx="28.125" cy="69.314" r="13.314" fill="#FFF" stroke="#000" stroke-width="5" stroke-miterlimit="10"></circle> <circle cx="28.125" cy="68.898" r="5.29"></circle> </g> </g> </symbol><symbol viewBox="-2 -2 74 129.005" preserveAspectRatio="none" id="tp-syl-ni"> <g id="bwni"> <g id="bwni_1_"> <path d="M32.745 2.5c10.902 0 19.985 8.025 19.985 17.925 0 5.94-3.195 11.19-8.096 14.45C53.788 35.52 61 42.456 61 50.932 61 57.42 56.768 63 50.682 65.554c9.96 4.88 16.818 15.114 16.818 26.952 0 16.57-12.247 30-28.815 30C13.647 122.505 2.5 95.767 2.5 62.63V32.5c0-16.57 13.676-30 30.245-30z" fill="#FFF" stroke="#000" stroke-width="5" stroke-linecap="round" stroke-linejoin="round" stroke-miterlimit="10"></path> <path fill="none" stroke="#000" stroke-width="5" stroke-linecap="round" stroke-linejoin="round" stroke-miterlimit="10" d="M2.806 72.46l36.944-4.206"></path> <ellipse transform="rotate(-6.486 28.26 82.66)" cx="28.251" cy="82.674" rx="4.725" ry="4.725"></ellipse> <ellipse transform="rotate(-6.486 25.31 56.777)" cx="25.305" cy="56.787" rx="4.725" ry="4.725"></ellipse> </g> </g> </symbol></svg>